<svg id="visual" viewBox="0 0 960 540" width="960" height="540" xmlns="http://www.w3.org/2000/svg" xmlns:xlink="http://www.w3.org/1999/xlink" version="1.1"><path d="M0 87L14.5 87C29 87 58 87 87.2 86.2C116.3 85.3 145.7 83.7 174.8 90C204 96.3 233 110.7 262 106.2C291 101.7 320 78.3 349 77.5C378 76.7 407 98.3 436.2 97.5C465.3 96.7 494.7 73.3 523.8 77.8C553 82.3 582 114.7 611 117.3C640 120 669 93 698 78.5C727 64 756 62 785.2 72.8C814.3 83.7 843.7 107.3 872.8 108.3C902 109.3 931 87.7 945.5 76.8L960 66L960 0L945.5 0C931 0 902 0 872.8 0C843.7 0 814.3 0 785.2 0C756 0 727 0 698 0C669 0 640 0 611 0C582 0 553 0 523.8 0C494.7 0 465.3 0 436.2 0C407 0 378 0 349 0C320 0 291 0 262 0C233 0 204 0 174.8 0C145.7 0 116.3 0 87.2 0C58 0 29 0 14.5 0L0 0Z" fill="#0e1117"></path><path d="M0 163L14.5 157.7C29 152.3 58 141.7 87.2 139C116.3 136.3 145.7 141.7 174.8 150.7C204 159.7 233 172.3 262 163.3C291 154.3 320 123.7 349 118.2C378 112.7 407 132.3 436.2 136.8C465.3 141.3 494.7 130.7 523.8 137C553 143.3 582 166.7 611 173C640 179.3 669 168.7 698 155.2C727 141.7 756 125.3 785.2 126.2C814.3 127 843.7 145 872.8 146.8C902 148.7 931 134.3 945.5 127.2L960 120L960 64L945.5 74.8C931 85.7 902 107.3 872.8 106.3C843.7 105.3 814.3 81.7 785.2 70.8C756 60 727 62 698 76.5C669 91 640 118 611 115.3C582 112.7 553 80.3 523.8 75.8C494.7 71.3 465.3 94.7 436.2 95.5C407 96.3 378 74.7 349 75.5C320 76.3 291 99.7 262 104.2C233 108.7 204 94.3 174.8 88C145.7 81.7 116.3 83.3 87.2 84.2C58 85 29 85 14.5 85L0 85Z" fill="#15171d"></path><path d="M0 352L14.5 342.2C29 332.3 58 312.7 87.2 295.5C116.3 278.3 145.7 263.7 174.8 257.3C204 251 233 253 262 254.8C291 256.7 320 258.3 349 266.3C378 274.3 407 288.7 436.2 307.7C465.3 326.7 494.7 350.3 523.8 351.3C553 352.3 582 330.7 611 309C640 287.3 669 265.7 698 249.5C727 233.3 756 222.7 785.2 229C814.3 235.3 843.7 258.7 872.8 280.2C902 301.7 931 321.3 945.5 331.2L960 341L960 118L945.5 125.2C931 132.3 902 146.7 872.8 144.8C843.7 143 814.3 125 785.2 124.2C756 123.3 727 139.7 698 153.2C669 166.7 640 177.3 611 171C582 164.7 553 141.3 523.8 135C494.7 128.7 465.3 139.3 436.2 134.8C407 130.3 378 110.7 349 116.2C320 121.7 291 152.3 262 161.3C233 170.3 204 157.7 174.8 148.7C145.7 139.7 116.3 134.3 87.2 137C58 139.7 29 150.3 14.5 155.7L0 161Z" fill="#1a1c23"></path><path d="M0 438L14.5 421.8C29 405.7 58 373.3 87.2 359C116.3 344.7 145.7 348.3 174.8 351C204 353.7 233 355.3 262 359C291 362.7 320 368.3 349 367.5C378 366.7 407 359.3 436.2 367.3C465.3 375.3 494.7 398.7 523.8 402.3C553 406 582 390 611 365.7C640 341.3 669 308.7 698 294.2C727 279.7 756 283.3 785.2 295.2C814.3 307 843.7 327 872.8 348.7C902 370.3 931 393.7 945.5 405.3L960 417L960 339L945.5 329.2C931 319.3 902 299.7 872.8 278.2C843.7 256.7 814.3 233.3 785.2 227C756 220.7 727 231.3 698 247.5C669 263.7 640 285.3 611 307C582 328.7 553 350.3 523.8 349.3C494.7 348.3 465.3 324.7 436.2 305.7C407 286.7 378 272.3 349 264.3C320 256.3 291 254.7 262 252.8C233 251 204 249 174.8 255.3C145.7 261.7 116.3 276.3 87.2 293.5C58 310.7 29 330.3 14.5 340.2L0 350Z" fill="#202129"></path><path d="M0 541L14.5 541C29 541 58 541 87.2 541C116.3 541 145.7 541 174.8 541C204 541 233 541 262 541C291 541 320 541 349 541C378 541 407 541 436.2 541C465.3 541 494.7 541 523.8 541C553 541 582 541 611 541C640 541 669 541 698 541C727 541 756 541 785.2 541C814.3 541 843.7 541 872.8 541C902 541 931 541 945.5 541L960 541L960 415L945.5 403.3C931 391.7 902 368.3 872.8 346.7C843.7 325 814.3 305 785.2 293.2C756 281.3 727 277.7 698 292.2C669 306.7 640 339.3 611 363.7C582 388 553 404 523.8 400.3C494.7 396.7 465.3 373.3 436.2 365.3C407 357.3 378 364.7 349 365.5C320 366.3 291 360.7 262 357C233 353.3 204 351.7 174.8 349C145.7 346.3 116.3 342.7 87.2 357C58 371.3 29 403.7 14.5 419.8L0 436Z" fill="#262730"></path></svg>